<svg width="24" height="173" viewBox="0 0 24 173" fill="none" xmlns="http://www.w3.org/2000/svg">
<path d="M17.224 8.694L17.224 3.654L14.236 3.654L14.236 8.55L11.86 8.55L11.86 3.654L7 3.654L7 1.17L19.6 1.17L19.6 8.694L17.224 8.694ZM8.116 18.064C7.204 17.14 6.748 16.012 6.748 14.68C6.748 13.348 7.204 12.22 8.116 11.296C9.04 10.384 10.168 9.92798 11.5 9.92798C12.832 9.92798 13.954 10.384 14.866 11.296C15.79 12.22 16.252 13.348 16.252 14.68C16.252 16.012 15.79 17.14 14.866 18.064C13.954 18.988 12.832 19.45 11.5 19.45C10.168 19.45 9.04 18.988 8.116 18.064ZM9.718 12.934C9.25 13.402 9.016 13.984 9.016 14.68C9.016 15.376 9.25 15.958 9.718 16.426C10.186 16.894 10.78 17.128 11.5 17.128C12.22 17.128 12.814 16.894 13.282 16.426C13.75 15.958 13.984 15.376 13.984 14.68C13.984 13.984 13.75 13.402 13.282 12.934C12.814 12.478 12.22 12.25 11.5 12.25C10.78 12.25 10.186 12.478 9.718 12.934ZM7 21.0835L20.14 21.0835L20.14 23.4055L7 23.4055L7 21.0835ZM7 25.5307L20.14 25.5307L20.14 27.8527L7 27.8527L7 25.5307ZM8.116 37.646C7.204 36.722 6.748 35.594 6.748 34.262C6.748 32.93 7.204 31.802 8.116 30.878C9.04 29.966 10.168 29.51 11.5 29.51C12.832 29.51 13.954 29.966 14.866 30.878C15.79 31.802 16.252 32.93 16.252 34.262C16.252 35.594 15.79 36.722 14.866 37.646C13.954 38.57 12.832 39.032 11.5 39.032C10.168 39.032 9.04 38.57 8.116 37.646ZM9.718 32.516C9.25 32.984 9.016 33.566 9.016 34.262C9.016 34.958 9.25 35.54 9.718 36.008C10.186 36.476 10.78 36.71 11.5 36.71C12.22 36.71 12.814 36.476 13.282 36.008C13.75 35.54 13.984 34.958 13.984 34.262C13.984 33.566 13.75 32.984 13.282 32.516C12.814 32.06 12.22 31.832 11.5 31.832C10.78 31.832 10.186 32.06 9.718 32.516ZM16 50.448L16 52.914L7 50.052L7 47.838L12.454 46.182L7 44.526L7 42.312L16 39.45L16 41.916L10.474 43.446L16 45.084L16 47.28L10.456 48.918L16 50.448ZM16 64.6055L16 66.9275L7 66.9275L7 64.6055L8.008 64.6055C7.168 64.0415 6.748 63.1475 6.748 61.9235C6.748 60.9395 7.078 60.1235 7.738 59.4755C8.398 58.8395 9.31 58.5215 10.474 58.5215L16 58.5215L16 60.8435L10.762 60.8435C10.162 60.8435 9.7 61.0055 9.376 61.3295C9.064 61.6535 8.908 62.0855 8.908 62.6255C8.908 63.2255 9.094 63.7055 9.466 64.0655C9.838 64.4255 10.396 64.6055 11.14 64.6055L16 64.6055ZM13.444 71.1259C13.204 71.1259 13.006 71.2819 12.85 71.5939C12.706 71.9179 12.574 72.3079 12.454 72.7639C12.346 73.2199 12.202 73.6759 12.022 74.1319C11.854 74.5879 11.566 74.9719 11.158 75.2839C10.75 75.6079 10.24 75.7699 9.628 75.7699C8.704 75.7699 7.99 75.4219 7.486 74.7259C6.994 74.0419 6.748 73.1839 6.748 72.1519C6.748 70.3039 7.462 69.0439 8.89 68.3719L10.024 70.3879C9.244 70.6519 8.854 71.2399 8.854 72.1519C8.854 72.9799 9.112 73.3939 9.628 73.3939C9.868 73.3939 10.06 73.2319 10.204 72.9079C10.36 72.5959 10.498 72.2119 10.618 71.7559C10.738 71.2999 10.888 70.8439 11.068 70.3879C11.248 69.9319 11.53 69.5419 11.914 69.2179C12.31 68.9059 12.802 68.7499 13.39 68.7499C14.278 68.7499 14.974 69.0739 15.478 69.7219C15.994 70.3819 16.252 71.1979 16.252 72.1699C16.252 72.9019 16.084 73.5679 15.748 74.1679C15.424 74.7679 14.956 75.2419 14.344 75.5899L13.264 73.6099C13.876 73.3219 14.182 72.8419 14.182 72.1699C14.182 71.8699 14.116 71.6179 13.984 71.4139C13.852 71.2219 13.672 71.1259 13.444 71.1259Z" fill="white"/>
<path d="M7.8 103H16.2C19.4032 103 22 105.597 22 108.8V117.2C22 120.403 19.4032 123 16.2 123H7.8C4.59675 123 2 120.403 2 117.2V108.8C2 105.597 4.59675 103 7.8 103ZM7.6 105C5.61177 105 4 106.612 4 108.6V117.4C4 119.388 5.61177 121 7.6 121H16.4C18.3882 121 20 119.388 20 117.4V108.6C20 106.612 18.3882 105 16.4 105H7.6ZM17.25 106.5C17.9404 106.5 18.5 107.06 18.5 107.75C18.5 108.44 17.9404 109 17.25 109C16.5596 109 16 108.44 16 107.75C16 107.06 16.5596 106.5 17.25 106.5ZM12 108C14.7614 108 17 110.239 17 113C17 115.761 14.7614 118 12 118C9.23857 118 7 115.761 7 113C7 110.239 9.23857 108 12 108ZM12 110C10.3431 110 9 111.343 9 113C9 114.657 10.3431 116 12 116C13.6569 116 15 114.657 15 113C15 111.343 13.6569 110 12 110Z" fill="white"/>
<path d="M22.4592 155.012C21.6896 155.354 20.8624 155.584 19.9944 155.688C20.8803 155.157 21.5609 154.316 21.8813 153.314C21.052 153.806 20.1336 154.163 19.156 154.355C18.3732 153.521 17.2579 153 16.0235 153C13.6534 153 11.7317 154.921 11.7317 157.292C11.7317 157.628 11.7697 157.955 11.8429 158.27C8.27609 158.091 5.11375 156.382 2.99709 153.786C2.62765 154.419 2.41601 155.157 2.41601 155.943C2.41601 157.432 3.17364 158.746 4.32523 159.515C3.62179 159.493 2.95996 159.3 2.38139 158.978C2.38098 158.996 2.38098 159.014 2.38098 159.032C2.38098 161.112 3.86033 162.846 5.82359 163.241C5.46349 163.339 5.08434 163.391 4.69294 163.391C4.4164 163.391 4.14755 163.364 3.88546 163.314C4.43161 165.019 6.01653 166.26 7.89454 166.295C6.42576 167.446 4.57527 168.132 2.56453 168.132C2.21812 168.132 1.87651 168.111 1.54077 168.072C3.44003 169.289 5.69591 170 8.1195 170C16.0134 170 20.3302 163.46 20.3302 157.789C20.3302 157.603 20.326 157.418 20.3177 157.234C21.1563 156.629 21.8839 155.873 22.4592 155.012Z" fill="white"/>
</svg>
